<svg width="805" height="200" viewBox="0 0 805 200" fill="none" xmlns="http://www.w3.org/2000/svg">
<path d="M483.375 70.5625C484.143 70.5296 484.912 70.4967 485.703 70.4629C489.41 70.4276 491.331 70.4299 494.215 72.8867C496.722 77.2587 498.994 81.7138 501.188 86.25C502.075 88.0685 502.964 89.8863 503.855 91.7031C504.244 92.5039 504.632 93.3048 505.032 94.1299C505.86 95.9611 505.86 95.9611 507 97C507.348 96.2834 507.696 95.5669 508.054 94.8286C509.632 91.5899 511.222 88.3574 512.813 85.125C513.36 83.9971 513.907 82.8691 514.471 81.707C515.002 80.6307 515.534 79.5543 516.082 78.4453C516.813 76.9528 516.813 76.9528 517.558 75.4302C519 73 519 73 522 71C524.749 70.8314 527.381 70.7667 530.125 70.8125C530.866 70.8131 531.607 70.8138 532.371 70.8144C537.86 70.8596 537.86 70.8596 539 72C539.099 73.7438 539.128 75.4916 539.129 77.2383C539.133 78.3561 539.136 79.474 539.139 80.6257C539.136 82.4507 539.136 82.4507 539.133 84.3125C539.134 85.5517 539.135 86.7909 539.136 88.0676C539.136 90.6939 539.135 93.32 539.13 95.9463C539.125 99.3193 539.128 102.692 539.134 106.065C539.138 109.273 539.135 112.48 539.133 115.687C539.135 116.904 539.137 118.121 539.139 119.374C539.134 121.051 539.134 121.051 539.129 122.762C539.129 123.751 539.128 124.741 539.127 125.76C539 128 539 128 538 129C536.169 129.099 534.334 129.13 532.5 129.125C531.5 129.128 530.499 129.13 529.469 129.133C527 129 527 129 526 128C525.84 125.263 525.741 122.548 525.684 119.809C525.663 118.989 525.642 118.169 525.621 117.324C525.555 114.695 525.496 112.066 525.438 109.437C525.394 107.659 525.351 105.881 525.307 104.104C525.199 99.7358 525.098 95.3679 525 91C524.677 91.681 524.355 92.362 524.022 93.0637C522.559 96.1478 521.092 99.2302 519.625 102.312C518.863 103.92 518.863 103.92 518.086 105.561C517.351 107.103 517.351 107.103 516.602 108.676C516.151 109.624 515.701 110.572 515.237 111.548C514 114 514 114 512 117C509.398 117.293 509.398 117.293 506.375 117.187C504.871 117.147 504.871 117.147 503.336 117.105C502.565 117.071 501.794 117.036 501 117C499.395 113.959 497.791 110.917 496.188 107.875C495.736 107.019 495.284 106.163 494.818 105.281C494.377 104.443 493.935 103.605 493.48 102.742C493.077 101.978 492.674 101.213 492.259 100.425C490.809 97.6316 489.402 94.8179 488 92C487.98 93.0498 487.96 94.0996 487.94 95.1811C487.864 99.0689 487.775 102.956 487.683 106.844C487.644 108.528 487.609 110.212 487.578 111.896C487.533 114.313 487.475 116.731 487.414 119.148C487.397 120.281 487.397 120.281 487.379 121.437C487.228 126.772 487.228 126.772 485 129C482.688 129.23 482.688 129.23 480 129.187C478.67 129.178 478.67 129.178 477.313 129.168C475 129 475 129 473 128C472.949 120.204 472.914 112.408 472.89 104.611C472.88 101.957 472.866 99.3034 472.849 96.6494C472.825 92.8418 472.814 89.0343 472.805 85.2266C472.794 84.0338 472.784 82.8411 472.773 81.6122C472.773 80.5112 472.773 79.4102 472.773 78.2759C472.766 76.8169 472.766 76.8169 472.76 75.3285C473.365 69.47 478.762 70.597 483.375 70.5625Z" fill="#1E1B4B"/>
<path d="M677.813 70.5625C678.85 70.5225 679.888 70.4826 680.957 70.4414C687.397 71.6235 690.557 77.9947 694.074 83.0605C694.966 84.3609 694.966 84.3609 695.875 85.6875C696.462 86.5351 697.048 87.3826 697.652 88.2559C698.834 89.9628 700.013 91.6709 701.19 93.3804C704.106 97.6014 707.053 101.801 710 106C710.02 105.011 710.04 104.022 710.06 103.002C710.136 99.3383 710.225 95.6745 710.317 92.0107C710.356 90.4239 710.391 88.837 710.422 87.25C710.468 84.971 710.526 82.6927 710.586 80.4141C710.598 79.7026 710.609 78.991 710.621 78.258C710.772 73.2277 710.772 73.2277 713 71C715.094 70.7695 715.094 70.7695 717.5 70.8125C718.294 70.8189 719.088 70.8254 719.906 70.832C722 71 722 71 724 72C724.023 79.2842 724.041 86.5684 724.052 93.8527C724.057 97.2347 724.064 100.617 724.076 103.999C724.088 107.883 724.093 111.768 724.098 115.652C724.103 116.872 724.108 118.092 724.113 119.349C724.113 120.47 724.114 121.591 724.114 122.746C724.116 123.738 724.118 124.731 724.12 125.754C724 128 724 128 723 129C720.453 129.273 720.453 129.273 717.25 129.375C716.203 129.424 715.157 129.473 714.078 129.523C708.67 128.604 706.302 124.492 703.238 120.285C702.258 118.881 701.283 117.473 700.313 116.062C699.351 114.678 698.389 113.294 697.426 111.91C696.912 111.17 696.399 110.431 695.87 109.668C691.956 104.082 687.972 98.545 684 93C683.975 94.055 683.95 95.11 683.924 96.197C683.83 100.098 683.73 103.998 683.628 107.899C683.584 109.589 683.543 111.28 683.503 112.971C683.445 115.396 683.381 117.821 683.316 120.246C683.291 121.387 683.291 121.387 683.266 122.55C683.114 127.886 683.114 127.886 682 129C680.358 129.125 678.71 129.176 677.063 129.188C676.167 129.202 675.271 129.216 674.348 129.23C672 129 672 129 670 127C669.746 124.723 669.746 124.723 669.741 121.848C669.735 120.773 669.729 119.699 669.722 118.592C669.726 117.427 669.73 116.262 669.734 115.062C669.733 113.871 669.731 112.68 669.729 111.453C669.727 108.931 669.731 106.41 669.739 103.888C669.75 100.016 669.739 96.145 669.727 92.2734C669.728 89.8281 669.731 87.3828 669.734 84.9375C669.73 83.7729 669.726 82.6083 669.722 81.4084C669.728 80.3339 669.735 79.2594 669.741 78.1523C669.743 77.2035 669.744 76.2547 669.746 75.2771C670.297 70.3338 673.612 70.6506 677.813 70.5625Z" fill="#1E1B4B"/>
<path d="M585.312 70.625C586.257 70.576 587.202 70.527 588.176 70.4766C594.235 71.5996 597.699 78.0526 601.125 82.8125C601.591 83.4532 602.057 84.094 602.536 84.7542C607.828 92.0749 612.914 99.5355 618 107C618.33 95.45 618.66 83.9 619 72C621.353 70.8233 622.881 70.8338 625.5 70.8125C626.294 70.7983 627.088 70.7841 627.906 70.7695C630 71 630 71 632 73C632.254 75.2771 632.254 75.2771 632.259 78.1523C632.265 79.2269 632.271 80.3014 632.278 81.4084C632.274 82.573 632.27 83.7376 632.266 84.9375C632.268 86.724 632.268 86.724 632.271 88.5466C632.273 91.0685 632.269 93.5904 632.261 96.1123C632.25 99.9839 632.261 103.855 632.273 107.727C632.272 110.172 632.27 112.617 632.266 115.062C632.27 116.227 632.274 117.392 632.278 118.592C632.272 119.666 632.265 120.741 632.259 121.848C632.257 122.796 632.256 123.745 632.254 124.723C632 127 632 127 630 129C627.355 129.371 627.355 129.371 624.188 129.438C623.15 129.477 622.112 129.517 621.043 129.559C615.459 128.533 613.038 124.147 609.949 119.742C608.856 118.123 607.769 116.501 606.688 114.875C601.945 107.799 597.048 100.862 592 94C591.98 94.9892 591.96 95.9784 591.94 96.9976C591.864 100.662 591.775 104.325 591.683 107.989C591.644 109.576 591.609 111.163 591.578 112.75C591.533 115.029 591.475 117.307 591.414 119.586C591.397 120.653 591.397 120.653 591.379 121.742C591.228 126.772 591.228 126.772 589 129C586.906 129.23 586.906 129.23 584.5 129.188C583.706 129.181 582.912 129.175 582.094 129.168C580 129 580 129 578 128C578 109.52 578 91.04 578 72C580.536 70.732 582.48 70.7247 585.312 70.625Z" fill="#1E1B4B"/>
<path d="M140.793 70.6367C141.79 70.6359 141.79 70.6359 142.808 70.6352C144.216 70.6375 145.624 70.6472 147.032 70.6638C149.163 70.6872 151.293 70.6843 153.424 70.6777C171.518 70.7141 171.518 70.7141 178 76.9999C179.75 80.5004 179.27 84.4556 179.313 88.3124C179.342 89.1677 179.371 90.023 179.4 90.9042C179.44 94.8768 179.337 97.378 177.418 100.918C174.407 103.51 171.724 104.639 168 106C168.394 106.555 168.788 107.109 169.193 107.681C170.972 110.197 172.736 112.723 174.5 115.25C175.43 116.559 175.43 116.559 176.379 117.894C177.259 119.161 177.259 119.161 178.156 120.453C178.701 121.228 179.246 122.003 179.807 122.802C181 125 181 125 181 129C178.751 129.108 176.501 129.186 174.25 129.25C172.997 129.296 171.744 129.343 170.453 129.391C167 129 167 129 164.883 127.527C161.668 123.211 158.947 118.585 156.242 113.935C153.465 109.237 153.465 109.237 148.648 106.98C147.338 106.99 147.338 106.99 146 107C146.005 107.631 146.011 108.262 146.016 108.912C146.037 111.754 146.05 114.596 146.063 117.437C146.071 118.431 146.079 119.424 146.088 120.447C146.091 121.391 146.094 122.336 146.098 123.309C146.103 124.183 146.108 125.058 146.114 125.959C146 128 146 128 145 129C142.835 129.099 140.667 129.13 138.5 129.125C137.314 129.128 136.128 129.13 134.906 129.133C132 129 132 129 131 128C130.891 126.328 130.851 124.652 130.839 122.977C130.829 121.906 130.82 120.834 130.81 119.73C130.806 118.564 130.801 117.397 130.797 116.195C130.791 115.005 130.786 113.815 130.78 112.589C130.77 110.065 130.764 107.542 130.76 105.018C130.75 101.148 130.719 97.2795 130.688 93.4101C130.681 90.9635 130.676 88.5169 130.672 86.0703C130.653 84.3264 130.653 84.3264 130.635 82.5473C130.638 81.4697 130.641 80.392 130.644 79.2817C130.64 78.3321 130.636 77.3824 130.633 76.404C131 73.9999 131 73.9999 132.331 72.1931C135.022 70.2696 137.538 70.6288 140.793 70.6367ZM146 82.9999C145.901 85.1647 145.87 87.3329 145.875 89.4999C145.872 90.6859 145.87 91.8718 145.867 93.0937C145.668 95.8925 145.668 95.8925 147 96.9999C148.914 97.1261 150.832 97.1757 152.75 97.1874C153.797 97.2016 154.843 97.2158 155.922 97.2304C159.261 96.9804 162.541 96.4585 165 93.9999C165.238 91.9672 165.238 91.9672 165.25 89.6249C165.276 88.8335 165.302 88.042 165.328 87.2265C165.14 84.9847 165.14 84.9847 163.961 83.2265C160.928 81.3291 157.833 81.6459 154.375 81.7499C153.682 81.7551 152.988 81.7603 152.273 81.7656C148.847 81.5343 148.847 81.5343 146 82.9999Z" fill="#1E1B4B"/>
<path d="M259.504 70.7344C260.803 70.7318 262.101 70.7292 263.44 70.7266C264.118 70.7308 264.796 70.7349 265.494 70.7393C267.531 70.7498 269.567 70.7394 271.604 70.7266C292.093 70.767 292.093 70.767 299 77C301.632 82.0914 302.383 85.8793 302.399 91.6914C302.401 92.3997 302.404 93.1081 302.407 93.8379C302.409 95.3245 302.404 96.8111 302.391 98.2976C302.375 100.56 302.391 102.821 302.41 105.084C302.408 106.536 302.404 107.989 302.399 109.441C302.395 110.748 302.392 112.054 302.388 113.401C301.857 118.323 300.268 121.617 296.938 125.25C288.858 130.064 278.808 129.314 269.684 129.261C267.476 129.25 265.27 129.261 263.063 129.273C261.656 129.272 260.25 129.27 258.844 129.266C257.577 129.263 256.311 129.261 255.006 129.259C252 129 252 129 250 127C249.739 124.723 249.739 124.723 249.725 121.848C249.716 120.773 249.706 119.699 249.697 118.592C249.697 117.427 249.698 116.262 249.699 115.062C249.695 113.871 249.691 112.68 249.686 111.453C249.681 108.931 249.68 106.41 249.684 103.888C249.688 100.016 249.664 96.145 249.639 92.2734C249.636 89.8281 249.636 87.3828 249.637 84.9375C249.628 83.7729 249.618 82.6083 249.609 81.4084C249.615 80.3339 249.621 79.2594 249.628 78.1523C249.627 77.2035 249.627 76.2547 249.626 75.2771C249.749 74.5257 249.873 73.7742 250 73C253.592 70.6053 255.236 70.7426 259.504 70.7344ZM263 83C262.899 85.5092 262.86 87.9904 262.867 90.5C262.866 91.2509 262.865 92.0018 262.864 92.7754C262.864 94.3659 262.866 95.9564 262.87 97.5469C262.875 99.9896 262.87 102.432 262.863 104.875C262.864 106.417 262.865 107.958 262.867 109.5C262.865 110.235 262.863 110.971 262.861 111.729C262.57 115.152 262.57 115.152 264 118C267.096 118.278 270.206 118.232 273.313 118.25C274.181 118.271 275.049 118.291 275.943 118.312C276.783 118.318 277.623 118.323 278.488 118.328C279.641 118.342 279.641 118.342 280.818 118.356C283.726 117.881 284.991 117.168 287 115C287.602 111.957 287.602 111.957 287.496 108.469C287.497 107.184 287.497 105.898 287.498 104.574C287.488 103.906 287.477 103.237 287.467 102.548C287.438 100.507 287.446 98.4676 287.459 96.4258C287.834 89.95 287.834 89.95 285.66 84.1543C281.598 81.33 277.101 81.8516 272.375 81.875C271.192 81.8692 271.192 81.8692 269.984 81.8633C266.186 81.5002 266.186 81.5002 263 83Z" fill="#1E1B4B"/>
<path d="M764.287 70.8147C766.295 70.8125 768.303 70.794 770.31 70.7754C771.586 70.7735 772.862 70.7715 774.176 70.7695C775.34 70.7654 776.505 70.7613 777.704 70.7571C781.105 71.0077 783.827 71.7848 787 73C787.027 74.4791 787.046 75.9583 787.062 77.4375C787.074 78.2612 787.086 79.0849 787.098 79.9336C787 82 787 82 786 83C784.101 82.9061 782.205 82.7474 780.312 82.5625C765.682 80.886 765.682 80.886 752 85C749.38 87.6203 750.77 94.7974 750.76 98.3557C750.75 100.426 750.719 102.495 750.687 104.564C750.682 105.862 750.677 107.159 750.672 108.496C750.662 109.694 750.653 110.892 750.644 112.127C750.761 113.075 750.879 114.023 751 115C755.953 118.302 760.456 118.117 766.312 118.062C767.567 118.053 768.821 118.044 770.113 118.035C771.542 118.018 771.542 118.018 773 118C773 114.37 773 110.74 773 107C771.866 106.856 770.731 106.711 769.562 106.562C766 106 766 106 765 105C764.928 103.481 764.916 101.958 764.937 100.438C764.946 99.6112 764.955 98.7849 764.965 97.9336C764.976 97.2955 764.988 96.6574 765 96C768.646 95.9711 772.292 95.9532 775.937 95.9375C777.499 95.9249 777.499 95.9249 779.092 95.9121C780.081 95.9089 781.07 95.9057 782.09 95.9023C783.464 95.8945 783.464 95.8945 784.867 95.8865C787 96 787 96 788 97C788.254 101.64 788.185 106.291 788.187 110.938C788.2 112.252 788.212 113.566 788.225 114.92C788.226 116.172 788.228 117.425 788.23 118.715C788.235 119.871 788.239 121.027 788.243 122.219C788 125 788 125 786 127C771.853 131.219 754.229 131.854 740.684 125.488C736.67 121.94 735.201 118.816 734.619 113.56C734.488 110.111 734.438 106.69 734.478 103.24C734.5 101.071 734.479 98.9051 734.453 96.7363C734.436 89.3533 734.545 83.1983 739 77C741.473 75.1602 741.473 75.1602 744.062 74.0625C744.92 73.6822 745.777 73.302 746.66 72.9102C752.59 70.6036 757.972 70.8139 764.287 70.8147Z" fill="#1E1B4B"/>
<path d="M343.531 70.7344C344.511 70.7395 345.491 70.7447 346.5 70.75C347.48 70.7448 348.459 70.7397 349.469 70.7344C352 71 352 71 354 73C354.279 74.873 354.279 74.873 354.319 77.1743C354.339 78.0351 354.359 78.8958 354.379 79.7826C354.391 80.7129 354.402 81.6431 354.414 82.6016C354.433 83.5532 354.453 84.5048 354.473 85.4852C354.533 88.5317 354.579 91.5783 354.625 94.625C354.663 96.6875 354.702 98.75 354.742 100.812C354.838 105.875 354.922 110.937 355 116C358.398 117.828 360.679 118.246 364.563 118.188C365.513 118.181 366.463 118.175 367.441 118.168C370.121 118.101 370.121 118.101 373 117C374.142 114.717 374.153 113.365 374.205 110.826C374.225 109.965 374.245 109.104 374.266 108.217C374.283 107.287 374.299 106.357 374.316 105.398C374.337 104.447 374.358 103.495 374.379 102.515C374.445 99.4683 374.504 96.4217 374.563 93.375C374.606 91.3125 374.649 89.25 374.693 87.1875C374.801 82.1251 374.902 77.0626 375 72C377.623 70.6884 379.637 70.8674 382.563 70.875C383.554 70.8724 384.545 70.8698 385.566 70.8672C388 71 388 71 389 72C389.114 73.441 389.16 74.8874 389.177 76.3328C389.196 77.7151 389.196 77.7151 389.216 79.1253C389.223 80.1294 389.231 81.1335 389.238 82.168C389.246 83.1955 389.254 84.2231 389.263 85.2818C389.277 87.4633 389.287 89.6449 389.295 91.8264C389.312 95.1562 389.356 98.4849 389.4 101.814C389.411 103.932 389.419 106.05 389.426 108.168C389.443 109.162 389.461 110.156 389.479 111.18C389.46 117.115 388.934 120.469 385 125C383.07 126.426 383.07 126.426 381.125 127.312C380.488 127.618 379.851 127.924 379.195 128.238C370.056 131.409 358.114 131.277 349 128C343.929 125.183 340.844 122.531 339 117C338.904 115.553 338.862 114.102 338.855 112.652C338.848 111.778 338.842 110.904 338.835 110.003C338.834 109.062 338.833 108.122 338.832 107.152C338.829 106.185 338.825 105.217 338.822 104.22C338.817 102.175 338.815 100.13 338.815 98.0847C338.813 94.9463 338.794 91.8083 338.775 88.6699C338.773 86.6849 338.771 84.6999 338.77 82.7148C338.762 81.7721 338.755 80.8294 338.748 79.8581C338.751 78.9871 338.754 78.116 338.757 77.2185C338.756 76.4503 338.754 75.6822 338.753 74.8907C339.169 71.709 340.474 71.0552 343.531 70.7344Z" fill="#1E1B4B"/>
<path d="M217.438 70.4375C218.756 70.395 220.075 70.3524 221.434 70.3086C225 71 225 71 226.964 73.3591C229.75 77.9034 231.382 82.9403 233.145 87.9453C233.519 88.9927 233.893 90.0402 234.278 91.1194C235.063 93.325 235.843 95.5322 236.62 97.7407C237.813 101.125 239.026 104.502 240.24 107.879C241.001 110.026 241.761 112.173 242.52 114.32C242.884 115.331 243.248 116.341 243.624 117.382C244.115 118.794 244.115 118.794 244.616 120.235C244.909 121.061 245.201 121.886 245.502 122.737C246.047 125.215 245.818 126.625 245 129C243.064 129.108 241.126 129.186 239.188 129.25C238.109 129.296 237.03 129.343 235.918 129.391C233 129 233 129 231.219 127.344C229.015 123.107 228.155 118.621 227 114C220.4 114 213.8 114 207 114C206.567 115.732 206.134 117.465 205.688 119.25C203.931 126.274 203.931 126.274 201 129C198.082 129.391 198.082 129.391 194.812 129.25C193.726 129.214 192.639 129.178 191.52 129.141C190.688 129.094 189.857 129.048 189 129C189.502 121.843 191.194 115.86 193.711 109.164C194.08 108.163 194.449 107.162 194.829 106.13C195.605 104.029 196.387 101.93 197.174 99.8325C198.377 96.6186 199.561 93.3979 200.742 90.1758C201.501 88.1298 202.262 86.0842 203.023 84.0391C203.377 83.0766 203.73 82.1141 204.094 81.1225C204.431 80.2308 204.768 79.3391 205.115 78.4204C205.407 77.637 205.699 76.8537 206.001 76.0465C208.6 70.7241 211.869 70.4535 217.438 70.4375ZM217 86C216.179 87.8714 215.369 89.7473 214.562 91.625C214.11 92.6691 213.658 93.7133 213.191 94.7891C212.042 97.8869 211.427 100.732 211 104C214.96 104 218.92 104 223 104C221.725 97.8222 220.108 91.9443 218 86C217.67 86 217.34 86 217 86Z" fill="#1E1B4B"/>
<path d="M441 71C443 73 443 73 443.23 74.9101C443.111 80.8889 443.111 80.8889 442 82C440.265 82.0629 438.528 82.0593 436.793 82.0273C435.731 82.0151 434.67 82.0028 433.576 81.9902C431.329 81.9552 429.081 81.9162 426.834 81.873C425.236 81.8566 425.236 81.8566 423.605 81.8398C422.627 81.823 421.649 81.8062 420.641 81.7888C417.925 82.006 416.317 82.6096 414 84C413.958 86.3329 413.959 88.667 414 91C415.579 92.5786 417.291 92.274 419.48 92.4297C420.398 92.5031 421.315 92.5766 422.26 92.6523C424.192 92.7992 426.124 92.94 428.057 93.0742C434.202 93.5802 439.454 94.1908 443.812 99C447.072 104.489 446.418 110.828 446 117C444.398 121.805 442.193 124.204 438 127C427.463 132.133 413.288 130.693 402 129C401.34 128.67 400.68 128.34 400 128C400 124.7 400 121.4 400 118C403.745 116.947 406.731 117.181 410.547 117.734C417.296 118.465 423.865 119.067 430 116C430 113.03 430 110.06 430 107C427.508 105.754 425.286 105.816 422.54 105.71C414.742 105.405 408.079 105.113 401.625 100.187C397.758 94.9822 397.323 89.2714 398 83C399.26 78.4787 400.274 76.56 404 73.6875C414.641 68.4896 429.591 68.5908 441 71Z" fill="#1E1B4B"/>
<path d="M72.6249 83.0625C77.5766 85.9052 81.177 89.5313 82.9999 95C83.7903 101.357 83.274 106.058 79.4765 111.309C76.0601 115.222 72.6941 117.101 67.6249 117.938C62.8902 118.248 59.05 117.527 54.9999 115C51.5212 111.725 48.2148 108.322 47.7616 103.426C47.6003 96.6594 47.7421 92.3783 51.9999 87C58.6191 81.8667 64.6472 80.7242 72.6249 83.0625Z" fill="#1E1B4B"/>
<path d="M558.5 70.6875C559.274 70.6707 560.047 70.654 560.844 70.6367C563.591 71.0996 564.309 71.8079 566 74C566.381 76.3594 566.381 76.3594 566.388 79.1741C566.398 80.2285 566.407 81.2829 566.417 82.3693C566.411 83.5068 566.405 84.6444 566.399 85.8164C566.403 87.5675 566.403 87.5675 566.407 89.354C566.409 91.8228 566.404 94.2917 566.391 96.7605C566.375 100.551 566.391 104.34 566.41 108.131C566.408 110.526 566.404 112.921 566.399 115.316C566.408 117.026 566.408 117.026 566.417 118.77C566.407 119.821 566.398 120.872 566.388 121.955C566.386 122.883 566.383 123.811 566.381 124.768C566.255 125.504 566.13 126.241 566 127C562.749 129.167 561.708 129.272 557.938 129.25C557.06 129.255 556.182 129.26 555.277 129.266C553 129 553 129 551 127C550.739 124.723 550.739 124.723 550.725 121.848C550.716 120.773 550.706 119.699 550.697 118.592C550.697 117.427 550.698 116.262 550.699 115.062C550.695 113.871 550.691 112.68 550.686 111.453C550.681 108.931 550.68 106.41 550.684 103.888C550.688 100.016 550.664 96.145 550.639 92.2734C550.636 89.8281 550.636 87.3828 550.637 84.9375C550.628 83.7729 550.618 82.6083 550.609 81.4084C550.615 80.3339 550.621 79.2594 550.628 78.1523C550.627 77.2035 550.627 76.2547 550.626 75.2771C550.749 74.5257 550.873 73.7742 551 73C554.098 70.9348 554.954 70.7052 558.5 70.6875Z" fill="#1E1B4B"/>
<path d="M320 70.875C320.887 70.8724 321.774 70.8698 322.688 70.8672C325 71 325 71 327 72C327 90.48 327 108.96 327 128C324.512 129.244 322.773 129.133 320 129.125C319.113 129.128 318.226 129.13 317.312 129.133C315 129 315 129 313 128C313 109.52 313 91.04 313 72C315.488 70.7562 317.227 70.8669 320 70.875Z" fill="#1E1B4B"/>
<path d="M648.313 70.7344C649.643 70.7421 649.643 70.7421 651 70.75C651.887 70.7448 652.774 70.7397 653.688 70.7344C656 71 656 71 658 73C658.241 75.3285 658.241 75.3285 658.227 78.2759C658.227 79.9274 658.227 79.9274 658.227 81.6122C658.216 82.8049 658.206 83.9977 658.195 85.2266C658.193 86.4445 658.19 87.6625 658.187 88.9173C658.176 92.82 658.15 96.7224 658.125 100.625C658.115 103.266 658.106 105.906 658.098 108.547C658.076 115.031 658.042 121.516 658 128C655.522 129.239 653.764 129.167 651 129.188C650.113 129.202 649.226 129.216 648.313 129.23C646 129 646 129 644 127C643.746 124.723 643.746 124.723 643.741 121.848C643.735 120.773 643.729 119.699 643.722 118.592C643.726 117.427 643.73 116.262 643.734 115.062C643.733 113.871 643.731 112.68 643.729 111.453C643.727 108.931 643.731 106.41 643.739 103.888C643.75 100.016 643.739 96.145 643.727 92.2734C643.728 89.8281 643.731 87.3828 643.734 84.9375C643.73 83.7729 643.726 82.6083 643.722 81.4084C643.728 80.3339 643.735 79.2594 643.741 78.1523C643.743 77.2035 643.744 76.2547 643.746 75.2771C644.107 72.0381 645.084 71.1053 648.313 70.7344Z" fill="#1E1B4B"/>
<path d="M69.9999 57C72.4374 58.5 72.4374 58.5 73.9999 61C74.7728 65.3345 74.806 68.7598 72.3749 72.5C69.41 74.3726 67.516 74.9297 63.9999 75C60.7987 73.8303 58.7009 72.9241 56.6249 70.1875C55.7825 67.239 55.6255 65.0573 55.9999 62C59.889 55.9651 63.1419 55.4359 69.9999 57Z" fill="#1E1B4B"/>
<path d="M70 126C72.4375 127.5 72.4375 127.5 74 130C74.7639 134.285 74.7098 137.735 72.5625 141.563C68.754 143.699 65.2649 143.8 61 143C58.4984 141.124 57.3805 139.761 56 137C55.5742 133.168 55.6968 131.471 57.8125 128.188C61.7055 124.295 64.8724 124.831 70 126Z" fill="#1E1B4B"/>
<path d="M92 114C94.6999 115.8 96.5418 117.084 98 120C98.2549 123.909 98.2328 126.709 96 130C92.2864 132.476 89.3033 132.645 85 132C82 130.562 82 130.562 80 128C79.2021 123.819 79.3243 120.287 81.3125 116.5C84.5248 113.645 87.8848 113.588 92 114Z" fill="#8B1FA9"/>
<path d="M104 91C106.431 92.8702 107.641 94.2814 109 97C109.43 100.872 109.317 102.525 107.125 105.813C104.421 108.597 103.577 108.935 99.6875 109.375C96 109 96 109 93.0625 107C90.7695 103.665 90.2383 101.9 90.5234 97.9375C92.292 90.7473 97.7724 90.1104 104 91Z" fill="#1E1B4B"/>
<path d="M35 91C37.4312 92.8702 38.6407 94.2814 40 97C40.4302 100.872 40.3167 102.525 38.125 105.813C35.4205 108.597 34.5773 108.935 30.6875 109.375C27 109 27 109 24.0625 107C21.7695 103.665 21.2383 101.9 21.5234 97.9375C23.292 90.7473 28.7724 90.1104 35 91Z" fill="#1E1B4B"/>
<path d="M93.0001 68.0001C96.4007 70.1255 96.8826 71.5693 97.9376 75.4376C98.0079 79.4441 97.5326 80.9436 95.0001 84.0001C92.326 86.1011 90.9572 85.9985 87.5001 85.8751C83.5618 84.8905 82.1498 84.4396 80.0001 81.0001C79.2361 76.7154 79.2903 73.2654 81.4376 69.4376C85.2654 67.2903 88.7154 67.2361 93.0001 68.0001Z" fill="#8B1FA9"/>
<path d="M44.9062 67.5195C47 68 47 68 49.5625 70.0625C51.3648 73.7454 51.5796 75.943 51 80C49.2044 82.7533 47.9475 84.5263 45 86C41.1279 86.4302 39.475 86.3167 36.1875 84.125C33.4035 81.4206 33.0654 80.5773 32.625 76.6875C33 73 33 73 34.9375 70.0625C38.5251 67.6464 40.657 67.2575 44.9062 67.5195Z" fill="#8B1FA9"/>
<path d="M45 114C47.6999 115.8 49.5418 117.084 51 120C51.486 124.293 51.4624 126.321 49 129.938C45.6641 132.231 43.9001 132.758 39.9375 132.481C36.4314 131.611 34.9878 129.92 33 127C32.3084 122.697 32.4844 120.791 34.875 117.125C38.2002 113.8 40.3456 113.544 45 114Z" fill="#8B1FA9"/>
<path d="M52 139C53.3228 144.411 53.3228 144.411 51.9375 146.938C49.0891 148.5 47.065 147.749 44 147C42.6773 141.589 42.6773 141.589 44.0625 139.063C46.911 137.5 48.9351 138.251 52 139Z" fill="#8B1FA9"/>
<path d="M20 112C22.97 112.495 22.97 112.495 26 113C26.625 116.375 26.625 116.375 27 120C26.34 120.66 25.68 121.32 25 122C21.375 121.625 21.375 121.625 18 121C17.3125 118.75 17.3125 118.75 17 116C18.4375 113.688 18.4375 113.688 20 112Z" fill="#8B1FA9"/>
<path d="M82.5 137.75C85 138 85 138 87 140C87.25 143 87.25 143 87 146C85 148 85 148 82.5 148.25C80 148 80 148 78 146C77.75 143 77.75 143 78 140C80 138 80 138 82.5 137.75Z" fill="#1E1B4B"/>
<path d="M51 52C53 55 53 55 52.75 57.5625C52 60 52 60 50 62C46.7029 61.6703 45.3773 61.3773 43 59C43.25 55.9375 43.25 55.9375 44 53C46.5342 51.7329 48.1944 51.7195 51 52Z" fill="#1E1B4B"/>
<path d="M109.625 112.313C112 113 112 113 113 114C113.188 116.938 113.188 116.938 113 120C111 122 111 122 108.5 122.25C106 122 106 122 104 120C103.688 117 103.688 117 104 114C107 112 107 112 109.625 112.313Z" fill="#1E1B4B"/>
<path d="M21.9374 77.8125C24.9999 78 24.9999 78 26.9999 80C27.2499 82.5 27.2499 82.5 26.9999 85C24.9999 87 24.9999 87 21.9999 87.3125C21.0099 87.2094 20.0199 87.1063 18.9999 87C16.9999 84 16.9999 84 17.3124 81.375C18.3001 77.963 18.2813 78.0459 21.9374 77.8125Z" fill="#1E1B4B"/>
<path d="M82.5 51.75C85 52 85 52 87 54C87.3125 57 87.3125 57 87 60C84 62 84 62 81.375 61.6875C79 61 79 61 78 60C77.8125 57.0625 77.8125 57.0625 78 54C80 52 80 52 82.5 51.75Z" fill="#8B1FA9"/>
<path d="M111 78C111.66 78.66 112.32 79.32 113 80C112.625 83.625 112.625 83.625 112 87C109.667 87.0424 107.333 87.0409 105 87C104 86 104 86 103.938 82.4375C103.958 81.3031 103.979 80.1687 104 79C106.513 77.7436 108.217 77.7913 111 78Z" fill="#8B1FA9"/>
<path d="M140.828 49.6579C142.732 49.6579 144.185 50.0999 145.188 50.9841C146.192 51.8477 146.693 53.1328 146.693 54.8393V58.6019C146.693 60.3496 146.202 61.6758 145.219 62.5804C144.257 63.4646 142.824 63.8859 140.92 63.8449L131.522 63.6907V60.329H142.24C142.568 60.329 142.732 60.1646 142.732 59.8355V53.6673C142.732 53.3382 142.568 53.1738 142.24 53.1738H136.774C134.87 53.1738 133.426 52.7522 132.443 51.9093C131.481 51.0665 131 49.7711 131 48.0234V44.3841C131 42.6776 131.501 41.3617 132.505 40.4364C133.508 39.4906 134.962 39.0383 136.866 39.0794L145.803 39.2336V42.5953H135.453C135.125 42.5953 134.962 42.7701 134.962 43.1196V49.1645C134.962 49.4936 135.125 49.6579 135.453 49.6579H140.828ZM150.487 41.4542V38H154.234V41.4542H150.487ZM150.487 63.6907V44.8159H154.234V63.6907H150.487ZM167.939 44.5383C169.475 44.5383 170.601 44.8467 171.318 45.4636C172.034 46.0804 172.393 47.1701 172.393 48.7327V63.6907H168.676V47.9925C168.676 47.7047 168.544 47.5607 168.277 47.5607H162.903C162.616 47.5607 162.473 47.7047 162.473 47.9925L162.504 63.6907H158.818L158.757 44.8159H162.074L162.35 46.728C162.76 45.2682 163.896 44.5383 165.759 44.5383H167.939ZM179.712 63.9682C178.177 63.9682 177.05 63.67 176.334 63.0738C175.638 62.457 175.29 61.3674 175.29 59.8047V57.029C175.29 55.3842 175.658 54.2431 176.395 53.6056C177.153 52.9478 178.402 52.6187 180.142 52.6187H184.964V48.3318C184.964 48.0645 184.831 47.9308 184.564 47.9308L176.426 47.9617V44.785H183.735C185.496 44.7645 186.766 45.1037 187.543 45.8028C188.321 46.4813 188.71 47.6738 188.71 49.3804V63.6907H185.363L185.056 61.5626C184.892 62.3645 184.534 62.9711 183.981 63.3822C183.449 63.773 182.681 63.9682 181.678 63.9682H179.712ZM184.964 60.9458V55.3327H179.374C179.108 55.3327 178.975 55.4663 178.975 55.7336V60.514C178.975 60.8018 179.108 60.9458 179.374 60.9458H184.964ZM192.68 71V44.8159H195.966L196.304 46.9748C196.467 46.1729 196.816 45.5663 197.348 45.1551C197.901 44.7439 198.679 44.5383 199.682 44.5383H201.832C203.388 44.5383 204.524 44.8467 205.241 45.4636C205.957 46.0804 206.316 47.1701 206.316 48.7327V59.3729C206.316 61.0383 205.937 62.1896 205.179 62.8271C204.442 63.4646 203.193 63.7832 201.432 63.7832L196.396 63.7215V71H192.68ZM196.396 47.9925V60.6682L202.2 60.7299C202.467 60.7299 202.6 60.5964 202.6 60.329V47.9925C202.6 47.7047 202.467 47.5607 202.2 47.5607H196.826C196.539 47.5607 196.396 47.7047 196.396 47.9925ZM209.58 63.7832L209.549 60.7607H217.841C218.128 60.7607 218.271 60.6272 218.271 60.3598V56.0112C218.271 55.7235 218.128 55.5794 217.841 55.5794H214.125C212.364 55.5794 211.105 55.2609 210.348 54.6234C209.61 53.9655 209.242 52.8139 209.242 51.1692V49.1336C209.242 47.4271 209.631 46.2346 210.409 45.5561C211.207 44.857 212.477 44.5177 214.217 44.5383H220.974V47.6841L213.419 47.6533C213.152 47.6533 213.019 47.7972 213.019 48.085V52.2178C213.019 52.5055 213.152 52.6495 213.419 52.6495H217.104C218.865 52.6495 220.114 52.9681 220.851 53.6056C221.588 54.2224 221.956 55.3636 221.956 57.029V59.6196C221.956 61.1823 221.598 62.272 220.881 62.8888C220.185 63.4849 219.059 63.7832 217.503 63.7832H209.58ZM229.862 63.9065C227.997 63.9065 226.646 63.5466 225.808 62.8271C224.989 62.1076 224.58 60.8943 224.58 59.1878V49.0411C224.58 47.3346 224.938 46.1626 225.654 45.5252C226.37 44.8673 227.598 44.5383 229.34 44.5383H233.117C234.877 44.5383 236.127 44.8673 236.864 45.5252C237.622 46.1626 238 47.3346 238 49.0411V56.4122H228.326V60.3598C228.326 60.6272 228.458 60.7607 228.725 60.7607H237.509V63.9065H229.862ZM228.725 47.5607C228.458 47.5607 228.326 47.7047 228.326 47.9925V53.6981H234.284V47.9925C234.284 47.7047 234.152 47.5607 233.885 47.5607H228.725Z" fill="#1E1B4B"/>
</svg>
