<svg width="1671" height="598" viewBox="0 0 1671 598" fill="none" xmlns="http://www.w3.org/2000/svg">
<path d="M272.4 271.72C262.13 271.72 253.22 269.41 246.37 264.51C221.67 246.83 224.03 204.54 227.63 191.96C236.76 160 250.86 131.84 269.52 108.27C309.71 57.5101 358.12 32.9801 383.41 22.8701L391.23 42.4301C372.44 49.9401 324.58 72.6701 286.04 121.34C269.09 142.75 256.25 168.45 247.89 197.75C245.49 206.14 244.17 237.03 258.64 247.38C275.18 259.22 333.25 240.27 379.57 189.84L395.09 204.09C357.09 245.46 307.05 271.72 272.4 271.72Z" fill="url(#paint0_linear_129_2)"/>
<path d="M203.76 597.44C170.3 597.44 151.72 580.87 141.88 566.42C120.91 535.62 120.91 487.22 141.87 443.12L142.28 442.25C147.9 430.42 161.82 401.1 188.46 369.87C155.21 347.82 99.9797 311.01 52.1797 243.05L69.4097 230.93C115.19 296.01 166.61 330.1 200.63 352.67C201.39 353.17 202.14 353.67 202.88 354.16C209.53 347.42 216.8 340.71 224.74 334.19C229.89 329.96 235.95 325.72 242.7 321.62C231.18 294.12 214.07 258.5 187.91 218.92C181.58 218.05 175.09 217 168.4 215.75C142.59 210.92 55.5197 191.34 18.6697 142.2C8.74973 128.97 -7.17027 98.2699 3.58973 76.7599C7.87973 68.1799 17.9997 57.9399 41.8397 57.9399C75.4197 57.9399 100.67 71.9499 170.14 158.79C181.15 172.55 191.08 186.06 200.04 199.18C240.73 203.67 275.55 200.54 314.75 197.01C339.29 194.8 361.21 191.52 380.47 187.79C397.49 148.61 420.41 113.16 455.7 77.8799C484.06 49.5199 529.94 28.1799 560.02 29.2899C574.77 29.8399 582.83 35.6999 586.99 40.5299C596.36 51.3999 599.33 65.2899 595.59 80.7099C586.81 116.87 542.98 155.59 483.94 179.36C471.39 184.41 441.61 196.4 395.49 206.23C386.49 228.76 379.19 252.91 372.23 279.67C371.4 282.87 370.62 286.13 369.89 289.43C375.88 290.34 381.58 291.78 386.91 293.8C407.14 301.5 419.62 316.98 423.01 338.58C426.74 362.37 418.6 381.38 399.46 393.55C388.89 400.27 375.35 404.49 360.24 406.72C360.83 451.06 364.94 486.5 366.04 491.88L345.4 496.1C344.2 490.26 339.86 454.15 339.15 408.56C324.58 409.06 309.23 408.14 294.11 406.19C307.93 465.89 303.35 519.69 280.3 555.69C264.2 580.84 240.27 595.18 211.08 597.18C208.57 597.36 206.13 597.44 203.76 597.44ZM206.48 381.26C180.33 411.26 166.72 439.92 161.32 451.29L160.9 452.17C143.36 489.06 142.72 530.22 159.3 554.57C170.11 570.45 187.05 577.71 209.66 576.17C232.25 574.62 250.05 563.91 262.58 544.33C283.33 511.92 286.21 459.65 271.47 402.47C245.74 397.35 222.28 389.61 206.48 381.26ZM288.16 383.8C305.24 386.52 322.89 387.96 339.11 387.45C339.39 362.24 340.96 335.28 344.8 309.57C320.58 311.15 292.63 319.51 269.21 331.01C271.94 338.04 274.26 344.3 276.26 349.67C277.34 352.59 278.32 355.22 279.2 357.54C282.56 366.35 285.54 375.12 288.16 383.8ZM366.03 310.17C362.21 334.75 360.6 360.89 360.25 385.46C371.16 383.62 380.75 380.49 388.16 375.77C400.17 368.13 404.63 357.35 402.2 341.84C399.99 327.76 392.54 318.48 379.42 313.49C375.35 311.94 370.85 310.85 366.03 310.17ZM221.63 365.24C232.87 370.4 247.92 375.3 264.58 379.19C263.01 374.49 261.32 369.76 259.52 365.02C258.62 362.65 257.62 359.97 256.52 356.99C254.83 352.43 252.89 347.21 250.66 341.41C246.11 344.33 241.9 347.36 238.14 350.46C232.24 355.29 226.75 360.24 221.63 365.24ZM214.71 221.63C236.12 255.95 250.89 286.82 261.33 311.52C287.7 298.76 319.78 289.07 348.6 288.24C349.59 283.53 350.67 278.9 351.85 274.36C357.7 251.86 363.91 230.84 371.25 210.88C354.71 213.73 336.49 216.2 316.64 217.98C281.7 221.13 250.12 223.98 214.71 221.63ZM41.8497 78.9899C31.3497 78.9899 24.8197 81.3999 22.4397 86.1599C17.7897 95.4699 25.4497 116.1 35.5297 129.54C67.3397 171.95 145.99 190.01 171.19 194.82C165.7 187.29 159.87 179.65 153.7 171.94C84.5097 85.4599 64.4897 78.9899 41.8497 78.9899ZM557.62 50.2999C533.3 50.2999 493.97 69.3999 470.6 92.7599C441.45 121.91 421.38 150.7 406.07 182.21C441.93 173.55 465.43 164.08 476.07 159.8C535.95 135.69 569.39 99.3199 575.12 75.7199C577.25 66.9399 575.92 59.9299 571.04 54.2699C568.46 51.2799 563.21 50.4699 559.25 50.3299C558.72 50.3099 558.18 50.2999 557.62 50.2999Z" fill="url(#paint1_linear_129_2)"/>
<mask id="mask0_129_2" style="mask-type:luminance" maskUnits="userSpaceOnUse" x="32" y="208" width="58" height="58">
<path d="M60.8097 265.43C76.5168 265.43 89.2498 252.697 89.2498 236.99C89.2498 221.283 76.5168 208.55 60.8097 208.55C45.1027 208.55 32.3698 221.283 32.3698 236.99C32.3698 252.697 45.1027 265.43 60.8097 265.43Z" fill="white"/>
</mask>
<g mask="url(#mask0_129_2)">
<path d="M89.2398 208.55H87.2798V265.43H89.2398V208.55Z" fill="#FBC600"/>
</g>
<mask id="mask1_129_2" style="mask-type:luminance" maskUnits="userSpaceOnUse" x="333" y="486" width="58" height="58">
<path d="M362.04 543.49C377.747 543.49 390.48 530.757 390.48 515.05C390.48 499.343 377.747 486.61 362.04 486.61C346.333 486.61 333.6 499.343 333.6 515.05C333.6 530.757 346.333 543.49 362.04 543.49Z" fill="white"/>
</mask>
<g mask="url(#mask1_129_2)">
<path d="M373.82 543.49L390.48 526.83V543.49H373.82Z" fill="#F28C30"/>
</g>
<mask id="mask2_129_2" style="mask-type:luminance" maskUnits="userSpaceOnUse" x="369" y="0" width="58" height="57">
<path d="M397.86 56.88C413.567 56.88 426.3 44.1469 426.3 28.44C426.3 12.733 413.567 0 397.86 0C382.153 0 369.42 12.733 369.42 28.44C369.42 44.1469 382.153 56.88 397.86 56.88Z" fill="white"/>
</mask>
<g mask="url(#mask2_129_2)">
<path d="M426.29 0H424.33V56.88H426.29V0Z" fill="#F28C30"/>
</g>
<path d="M794.78 364.04H697.88C682.76 364.04 670.49 351.78 670.49 336.65V173.33C670.49 158.23 682.71 145.98 697.81 145.94L794.71 145.71C809.86 145.67 822.16 157.95 822.16 173.1V208.11C822.16 209.27 821.22 210.22 820.05 210.22H788.45C787.29 210.22 786.34 209.28 786.34 208.11V183.66C786.34 182.49 785.39 181.55 784.23 181.55L708.39 181.73C707.23 181.73 706.29 182.68 706.29 183.84V326.11C706.29 327.27 707.23 328.22 708.4 328.22H784.24C785.4 328.22 786.35 327.28 786.35 326.11V301.95C786.35 300.79 787.29 299.84 788.46 299.84H820.06C821.22 299.84 822.17 300.78 822.17 301.95V336.64C822.16 351.77 809.9 364.04 794.78 364.04Z" fill="#282826"/>
<path d="M884.3 365.05H852.7C851.54 365.05 850.59 364.11 850.59 362.94V223.13C850.59 208.05 862.78 195.81 877.86 195.74L937.94 195.48C939.1 195.48 940.05 196.41 940.06 197.58L940.2 229.18C940.21 230.34 939.27 231.29 938.1 231.3L888.51 231.51C887.35 231.51 886.41 232.46 886.41 233.62V362.95C886.41 364.11 885.47 365.05 884.3 365.05Z" fill="#282826"/>
<path d="M1276.13 229.18V197.58C1276.13 196.42 1275.19 195.47 1274.02 195.47H1250.85C1249.69 195.47 1248.74 194.53 1248.74 193.36V139.65C1248.74 138.49 1247.8 137.54 1246.63 137.54H1215.03C1213.87 137.54 1212.92 138.48 1212.92 139.65V336.65C1212.92 351.77 1225.18 364.04 1240.31 364.04H1274.02C1275.18 364.04 1276.13 363.1 1276.13 361.93V330.33C1276.13 329.17 1275.19 328.22 1274.02 328.22H1250.85C1249.69 328.22 1248.74 327.28 1248.74 326.11V233.39C1248.74 232.23 1249.68 231.28 1250.85 231.28H1274.02C1275.18 231.29 1276.13 230.34 1276.13 229.18Z" fill="#282826"/>
<path d="M1440.29 309.85L1405.44 196.96C1405.17 196.08 1404.35 195.47 1403.43 195.47H1370.42C1369 195.47 1367.99 196.84 1368.41 198.2L1419.41 363.57C1419.68 364.45 1420.5 365.06 1421.42 365.06H1463.08C1464 365.06 1464.82 364.46 1465.09 363.58L1516.42 198.21C1516.84 196.85 1515.83 195.48 1514.41 195.48H1481.53C1480.61 195.48 1479.79 196.08 1479.52 196.96L1444.32 309.86C1443.7 311.83 1440.9 311.83 1440.29 309.85Z" fill="#282826"/>
<path d="M1150.13 364.55L1068.11 364.52C1052.99 364.51 1040.73 352.26 1040.73 337.13V285.52C1040.73 270.4 1052.99 258.13 1068.12 258.13H1139.61C1140.77 258.13 1141.72 257.19 1141.72 256.02V233.9C1141.72 232.74 1140.78 231.79 1139.61 231.79H1041.79C1040.63 231.79 1039.68 230.85 1039.68 229.68V198.08C1039.68 196.92 1040.62 195.97 1041.79 195.97H1150.14C1165.26 195.97 1177.53 208.23 1177.53 223.36V337.14C1177.52 352.3 1165.26 364.56 1150.13 364.55ZM1078.65 328.72L1139.6 328.74C1140.76 328.74 1141.71 327.8 1141.71 326.63V296.06C1141.71 294.9 1140.77 293.95 1139.6 293.95H1078.65C1077.49 293.95 1076.54 294.89 1076.54 296.06V326.61C1076.55 327.78 1077.49 328.72 1078.65 328.72Z" fill="#282826"/>
<path d="M1006.09 365.06L974.49 365.05C973.33 365.05 972.38 364.11 972.38 362.94L972.41 198.63C972.41 197.47 973.35 196.52 974.52 196.52L1006.12 196.53C1007.28 196.53 1008.23 197.47 1008.23 198.64L1008.2 362.95C1008.2 364.11 1007.26 365.06 1006.09 365.06Z" fill="#282826"/>
<path d="M972.42 176.83L972.39 149.17C972.39 148.01 973.33 147.06 974.49 147.06L1006.09 147.03C1007.25 147.03 1008.2 147.97 1008.2 149.13L1008.23 176.79C1008.23 177.95 1007.29 178.9 1006.13 178.9L974.53 178.93C973.37 178.94 972.42 177.99 972.42 176.83Z" fill="#282826"/>
<path d="M1642.74 364.76L1560.72 364.73C1545.6 364.72 1533.34 352.47 1533.34 337.34V285.73C1533.34 270.61 1545.6 258.34 1560.73 258.34H1632.22C1633.38 258.34 1634.33 257.4 1634.33 256.23V234.11C1634.33 232.95 1633.39 232 1632.22 232H1534.4C1533.24 232 1532.29 231.06 1532.29 229.89V198.31C1532.29 197.15 1533.23 196.2 1534.4 196.2H1642.75C1657.87 196.2 1670.14 208.46 1670.14 223.59V337.37C1670.14 352.5 1657.87 364.76 1642.74 364.76ZM1571.27 328.92L1632.22 328.94C1633.38 328.94 1634.33 328 1634.33 326.83V296.26C1634.33 295.1 1633.39 294.15 1632.22 294.15H1571.27C1570.11 294.15 1569.16 295.09 1569.16 296.26V326.81C1569.16 327.98 1570.1 328.92 1571.27 328.92Z" fill="#282826"/>
<path d="M1347.36 364.22L1315.76 364.21C1314.6 364.21 1313.65 363.27 1313.65 362.1L1313.68 197.79C1313.68 196.63 1314.62 195.68 1315.79 195.68L1347.39 195.69C1348.55 195.69 1349.5 196.63 1349.5 197.8L1349.47 362.11C1349.47 363.28 1348.52 364.22 1347.36 364.22Z" fill="#282826"/>
<path d="M1313.69 176L1313.66 148.34C1313.66 147.18 1314.6 146.23 1315.76 146.23L1347.36 146.19C1348.52 146.19 1349.47 147.13 1349.47 148.29L1349.5 175.95C1349.5 177.11 1348.56 178.06 1347.4 178.06L1315.8 178.1C1314.63 178.1 1313.69 177.16 1313.69 176Z" fill="#282826"/>
<path d="M991.13 569.46C985.12 569.59 979.77 568.09 975.07 565.36C970.37 562.62 966.69 558.67 964.03 553.51C961.37 548.35 960.05 544.32 960.05 537.17C960.05 530.02 961.38 523.86 964.03 518.7C966.69 513.54 970.3 509.59 974.87 506.85C979.44 504.12 984.6 502.75 990.35 502.75C996.27 502.75 1001.32 504.07 1005.5 506.72C1009.68 509.37 1012.9 513.05 1015.17 517.78C1017.43 522.5 1018.57 527.96 1018.57 534.13C1018.57 534.92 1018.55 535.7 1018.5 536.45C1018.46 537.2 1018.39 537.88 1018.3 538.5H964.1V532.54H1015.43L1012.16 533.47C1012.07 525.88 1010.09 519.83 1006.22 515.33C1002.34 510.83 997.01 508.58 990.22 508.58C985.52 508.58 981.38 509.7 977.81 511.96C974.24 514.21 971.45 517.48 969.45 521.76C967.45 526.04 966.45 531.18 966.45 537.18C966.45 543.09 967.47 546.08 969.52 550.4C971.56 554.73 974.44 558.01 978.14 560.26C981.84 562.51 986.13 563.62 991 563.64C1001.12 563.67 1009.4 561.08 1010.76 560.36L1010.73 566.7C1010.82 567.23 1001.12 569.24 991.13 569.46Z" fill="#282826"/>
<path d="M1037.24 569.35V504.05H1043.12L1043.64 520.38L1042.59 519.47C1043.81 515.9 1045.64 512.85 1048.08 510.33C1050.52 507.81 1053.43 505.91 1056.83 504.65C1060.23 503.39 1063.88 502.76 1067.8 502.76C1072.68 502.76 1076.99 503.68 1080.73 505.5C1084.47 507.33 1087.41 510.03 1089.55 513.6C1091.68 517.17 1092.75 521.65 1092.75 527.05V569.37H1086.22V529.14C1086.22 522 1084.46 516.78 1080.93 513.47C1077.4 510.16 1072.81 508.51 1067.15 508.51C1063.06 508.51 1059.25 509.45 1055.72 511.32C1052.19 513.19 1049.32 515.91 1047.1 519.48C1044.88 523.05 1043.77 527.4 1043.77 532.54V569.37H1037.24V569.35Z" fill="#282826"/>
<path d="M1183.87 569.35V504.05H1189.36L1190.14 517.63C1191.79 513.1 1194.45 509.49 1198.11 506.79C1201.77 504.09 1205.04 502.74 1210.18 502.74C1213.75 502.74 1216.47 504.18 1217.42 504.96L1215.85 510.71C1214.89 510.1 1211.99 508.75 1209.73 508.75C1206.42 508.75 1203.29 509.77 1200.33 511.82C1197.37 513.87 1194.98 516.7 1193.15 520.31C1191.32 523.92 1190.41 528.08 1190.41 532.78V569.35H1183.87Z" fill="#282826"/>
<path d="M1263.93 562.69C1270.37 562.69 1275.42 564.04 1279.08 566.74C1282.74 569.44 1284.56 573.05 1284.56 577.58C1284.56 581.58 1283.23 585.07 1280.58 588.03C1277.92 590.99 1274.29 593.3 1269.67 594.95C1265.05 596.6 1259.79 597.43 1253.87 597.43C1244.03 597.43 1236.5 595.75 1231.27 592.4C1226.05 589.05 1223.43 584.84 1223.43 579.8C1223.43 576.14 1224.76 572.96 1227.41 570.26C1230.06 567.56 1233.96 565.95 1239.1 565.43L1238.58 566.61C1235.79 565.83 1233.33 564.52 1231.2 562.69C1229.07 560.86 1228 558.25 1228 554.85C1228 551.19 1229.37 548.21 1232.11 545.9C1234.85 543.59 1238.49 542.26 1243.02 541.92L1249.94 544.27H1247.2C1243.19 544.53 1239.99 545.51 1237.6 547.21C1235.2 548.91 1234.01 551.11 1234.01 553.81C1234.01 556.77 1235.16 558.99 1237.47 560.47C1239.78 561.95 1242.71 562.69 1246.29 562.69H1263.93ZM1252.96 502.74C1258.1 502.74 1262.64 503.63 1266.61 505.42C1270.57 507.21 1273.64 509.69 1275.82 512.86C1277.99 516.04 1279.08 519.76 1279.08 524.03C1279.08 528.21 1277.99 531.93 1275.82 535.2C1273.64 538.46 1270.57 540.99 1266.61 542.77C1262.65 544.56 1258.1 545.45 1252.96 545.45C1244.69 545.45 1238.22 543.47 1233.56 539.51C1228.9 535.55 1226.57 530.39 1226.57 524.03C1226.57 519.76 1227.68 516.04 1229.9 512.86C1232.12 509.68 1235.21 507.2 1239.17 505.42C1243.15 503.64 1247.74 502.74 1252.96 502.74ZM1253.88 591.95C1259.02 591.95 1263.41 591.34 1267.07 590.12C1270.73 588.9 1273.54 587.27 1275.49 585.22C1277.45 583.17 1278.43 580.89 1278.43 578.36C1278.43 575.31 1277.1 572.87 1274.45 571.04C1271.79 569.21 1267.77 568.3 1262.37 568.3H1243.82C1239.73 568.3 1236.33 569.26 1233.63 571.17C1230.93 573.08 1229.58 575.65 1229.58 578.88C1229.58 582.8 1231.73 585.95 1236.04 588.35C1240.36 590.75 1246.3 591.95 1253.88 591.95ZM1252.96 508.1C1247.21 508.1 1242.51 509.56 1238.85 512.48C1235.19 515.4 1233.36 519.25 1233.36 524.04C1233.36 528.83 1235.19 532.7 1238.85 535.66C1242.51 538.62 1247.21 540.1 1252.96 540.1C1258.71 540.1 1263.38 538.62 1267 535.66C1270.61 532.7 1272.42 528.83 1272.42 524.04C1272.42 519.25 1270.61 515.4 1267 512.48C1263.39 509.56 1258.71 508.1 1252.96 508.1ZM1287.71 506.28L1286.95 512.19C1286.87 512.16 1286.79 512.12 1286.71 512.09C1286.63 512.06 1286.51 512.01 1286.35 511.94C1282.41 510.3 1278.83 509.8 1275.97 511.22C1273.23 512.59 1272.85 513.42 1272.58 513.95L1268.78 510.97C1268.9 510.69 1269.15 509.53 1271.37 507.81C1273.59 506.1 1276.09 505.08 1278.86 504.78C1281.63 504.47 1284.42 504.9 1287.23 506.08C1287.39 506.15 1287.49 506.19 1287.53 506.2C1287.57 506.22 1287.63 506.25 1287.71 506.28Z" fill="#282826"/>
<path d="M1310.61 502.74V569.26H1304.08V509.14H1297.19V502.74H1310.61Z" fill="#282826"/>
<path d="M1381.97 564.17C1376.22 567.31 1369.69 569.26 1359.24 569.26C1343.96 569.26 1332.21 562.47 1332.21 548.1V547.45C1332.21 537.28 1339.13 532.53 1349.84 530.27C1355.85 529 1362.07 529.04 1368.1 530.23L1375.57 531.7V525.92C1375.57 513.51 1367.47 508.26 1356.24 508.63C1350.42 508.82 1346.73 510.06 1341.64 511.26L1338.9 506.04C1345.44 503.61 1350.88 502.86 1356.55 502.76C1370.65 502.5 1381.97 509.47 1381.97 526.32V564.17ZM1375.57 537.45L1367.98 535.89C1362.33 534.73 1356.5 534.52 1350.83 535.58C1343.24 537.01 1338.61 539.91 1338.61 547.45V548.1C1338.61 558.55 1347.1 563.25 1359.38 563.25C1366.56 563.25 1371.79 561.81 1375.57 560.25V537.45Z" fill="#282826"/>
<path d="M1139.46 569.46C1133.45 569.59 1128.1 568.09 1123.4 565.36C1118.7 562.62 1115.02 558.67 1112.36 553.51C1109.7 548.35 1108.38 544.32 1108.38 537.17C1108.38 530.02 1109.71 523.86 1112.36 518.7C1115.02 513.54 1118.63 509.59 1123.2 506.85C1127.77 504.12 1132.93 502.75 1138.68 502.75C1144.6 502.75 1149.65 504.07 1153.83 506.72C1158.01 509.37 1161.23 513.05 1163.5 517.78C1165.76 522.5 1166.9 527.96 1166.9 534.13C1166.9 534.92 1166.88 535.7 1166.83 536.45C1166.79 537.2 1166.72 537.88 1166.63 538.5H1112.43V532.54H1163.76L1160.49 533.47C1160.4 525.88 1158.42 519.83 1154.55 515.33C1150.67 510.83 1145.34 508.58 1138.55 508.58C1133.85 508.58 1129.71 509.7 1126.14 511.96C1122.57 514.21 1119.78 517.48 1117.78 521.76C1115.78 526.04 1114.78 531.18 1114.78 537.18C1114.78 543.09 1115.8 546.08 1117.85 550.4C1119.89 554.73 1122.77 558.01 1126.47 560.26C1130.17 562.51 1134.46 563.62 1139.33 563.64C1149.45 563.67 1157.73 561.08 1159.09 560.36L1159.06 566.7C1159.15 567.23 1149.45 569.24 1139.46 569.46Z" fill="#282826"/>
<path d="M1310.61 475.65H1300.08V486.18H1310.61V475.65Z" fill="#282826"/>
<defs>
<linearGradient id="paint0_linear_129_2" x1="225.401" y1="147.295" x2="395.081" y2="147.295" gradientUnits="userSpaceOnUse">
<stop offset="0.1552" stop-color="#F9B90B"/>
<stop offset="1" stop-color="#F5A21D"/>
</linearGradient>
<linearGradient id="paint1_linear_129_2" x1="0.00463294" y1="313.339" x2="597.17" y2="313.339" gradientUnits="userSpaceOnUse">
<stop stop-color="#F7A904"/>
<stop offset="0.0326" stop-color="#F8B303"/>
<stop offset="0.0988" stop-color="#FAC101"/>
<stop offset="0.1552" stop-color="#FBC600"/>
<stop offset="1" stop-color="#F28C30"/>
</linearGradient>
</defs>
</svg>
